<?xml version="1.0" standalone="no"?><!DOCTYPE svg PUBLIC "-//W3C//DTD SVG 1.1//EN" "http://www.w3.org/Graphics/SVG/1.1/DTD/svg11.dtd"><svg t="1717466067902" class="icon" viewBox="0 0 1024 1024" version="1.1" xmlns="http://www.w3.org/2000/svg" p-id="2850" xmlns:xlink="http://www.w3.org/1999/xlink" width="256" height="256"><path d="M420.92289 0.031977L420.731031 0H59.63621l-0.175871 0.031977C26.780338 0.127906 0.31977 25.821038 0.31977 57.525755v363.525036a59.348416 59.348416 0 0 0 59.31644 59.348416h361.094821a59.364404 59.364404 0 0 0 59.332427-59.348416V57.525755c0-31.704717-26.460568-57.397848-59.140568-57.493778z m543.600793 0L964.347812 0H603.237003l-0.175871 0.031977C570.381131 0.127906 543.920563 25.821038 543.920563 57.525755v363.525036a59.348416 59.348416 0 0 0 59.31644 59.348416h361.110809a59.348416 59.348416 0 0 0 59.31644-59.348416V57.525755c0-31.704717-26.460568-57.397848-59.140569-57.493778z m-543.600793 543.600793L420.747019 543.600793H59.63621l-0.175871 0.031977C26.780338 543.728699 0.31977 569.421831 0.31977 601.126548v363.509048a59.348416 59.348416 0 0 0 59.31644 59.364404h361.094821a59.364404 59.364404 0 0 0 59.332427-59.364404V601.110559c0-31.688729-26.460568-57.38186-59.140568-57.477789z m543.600793 0L964.347812 543.600793H603.237003l-0.175871 0.031977c-32.680001 0.09593-59.156557 25.789061-59.156557 57.493778v363.509048a59.364404 59.364404 0 0 0 59.31644 59.364404h361.110809a59.348416 59.348416 0 0 0 59.316439-59.364404V601.110559c0.015988-31.688729-26.44458-57.38186-59.12458-57.477789z" fill="#6a45bd" p-id="2851"></path><path d="M96.345251 191.955033h-31.976517V384.51762c0 17.683014 14.309491 32.024482 31.976517 32.024482h287.788656a31.976517 31.976517 0 0 0 31.976517-32.024482V191.955033h-319.765173z m831.389449 0h-319.765173V384.51762c0 17.683014 14.32548 32.024482 31.976518 32.024482h287.788655c17.651038 0 31.976517-14.32548 31.976517-32.024482V191.955033h-31.976517z m-831.389449 543.600793h-31.976517V928.118413c0 17.683014 14.309491 32.024482 31.976517 32.024482h287.788656a31.976517 31.976517 0 0 0 31.976517-32.024482V735.555826h-319.765173z m543.600794 0h-31.976518V928.118413c0 17.683014 14.32548 32.024482 31.976518 32.024482h287.788655c17.651038 0 31.976517-14.32548 31.976517-32.024482V735.555826h-319.765172zM192.274803 63.921058c-1.167143 0-2.270333 0.223836-3.405499 0.335753H96.345251a31.976517 31.976517 0 0 0 0 63.953035h95.929552a31.976517 31.976517 0 0 0 31.976517-31.976517l-0.015988-0.143895 0.015988-0.143894a32.008494 32.008494 0 0 0-31.976517-32.024482z m95.929552 0a32.008494 32.008494 0 0 0 0 64.032976 32.008494 32.008494 0 1 0 0-64.032976z m95.929552 0a32.008494 32.008494 0 0 0 0 64.032976 32.008494 32.008494 0 1 0 0-64.032976z m351.725701 0c-1.167143 0-2.270333 0.223836-3.389511 0.335753h-92.524052a31.976517 31.976517 0 0 0 0 63.953035h95.929551a31.976517 31.976517 0 0 0 31.976518-31.976517l-0.015989-0.143895 0.015989-0.143894a32.008494 32.008494 0 0 0-31.992506-32.024482z m95.94554 0a31.976517 31.976517 0 0 0-31.976517 32.04047 31.976517 31.976517 0 1 0 63.953034 0 32.008494 32.008494 0 0 0-31.976517-32.04047z m95.929552 64.032976a32.008494 32.008494 0 1 0 0-64.032976c-17.651038 0-31.976517 14.32548-31.976517 32.04047a31.976517 31.976517 0 0 0 31.976517 31.992506z m-735.459897 479.583805c-1.119178 0-2.174403 0.223836-3.245616 0.335754H96.345251a31.976517 31.976517 0 0 0 0 63.953034h95.929552a31.976517 31.976517 0 0 0 31.976517-31.976517l-0.015988-0.143894 0.015988-0.143895a31.992506 31.992506 0 0 0-31.976517-32.024482z m95.929552 0a31.992506 31.992506 0 0 0 0 64.016988 31.992506 31.992506 0 1 0 0-64.016988z m95.929552 0a31.992506 31.992506 0 0 0 0 64.016988 31.992506 31.992506 0 1 0 0-64.016988z m351.725701 0c-1.119178 0-2.158415 0.223836-3.245616 0.335754h-92.667947a31.976517 31.976517 0 0 0 0 63.953034h95.929551a31.976517 31.976517 0 0 0 31.976518-31.976517l-0.015989-0.143894 0.015989-0.143895a32.008494 32.008494 0 0 0-31.992506-32.024482z m95.94554 0a31.976517 31.976517 0 0 0-31.976517 32.024482 31.976517 31.976517 0 1 0 31.976517-32.024482z m95.929552 0a31.992506 31.992506 0 0 0 0 64.016988 31.992506 31.992506 0 1 0 0-64.016988z" fill="#6a45bd" p-id="2852"></path></svg>