<?xml version="1.0" standalone="no"?><!DOCTYPE svg PUBLIC "-//W3C//DTD SVG 1.1//EN" "http://www.w3.org/Graphics/SVG/1.1/DTD/svg11.dtd"><svg t="1717142488233" class="icon" viewBox="0 0 1228 1024" version="1.1" xmlns="http://www.w3.org/2000/svg" p-id="4287" width="307" height="256" xmlns:xlink="http://www.w3.org/1999/xlink"><path d="M1034.751483 127.999936h-161.791919l-35.839983-70.655965A115.199942 115.199942 0 0 0 743.935628 0H484.863758a115.199942 115.199942 0 0 0-93.183954 57.343971l-35.839982 70.655965H194.047903A193.535903 193.535903 0 0 0 0 319.99984v511.999744A193.535903 193.535903 0 0 0 194.047903 1023.999488h840.70358A193.535903 193.535903 0 0 0 1228.799386 831.999584v-511.999744a193.535903 193.535903 0 0 0-194.047903-191.999904zM614.399693 823.295588a281.599859 281.599859 0 1 1 281.599859-281.599859 281.599859 281.599859 0 0 1-281.599859 281.599859z" p-id="4288" fill="#243596"></path><path d="M614.399693 541.695729m-179.199911 0a179.19991 179.19991 0 1 0 358.399821 0 179.19991 179.19991 0 1 0-358.399821 0Z" p-id="4289" fill="#243596"></path></svg>